<svg width="24" height="29" viewBox="0 0 24 29" fill="none" xmlns="http://www.w3.org/2000/svg">
<path fill-rule="evenodd" clip-rule="evenodd" d="M8.36827 5.554V5.463V5.372C8.38209 4.35688 8.77148 3.38287 9.46127 2.638C10.1965 1.92119 11.1695 1.49947 12.1953 1.453C13.2109 1.46684 14.1853 1.85661 14.9303 2.547C15.6471 3.28224 16.0688 4.25521 16.1153 5.281V5.554H8.36827ZM7.63827 9.473C7.82738 9.48586 8.00542 9.56679 8.13945 9.70082C8.27348 9.83485 8.35441 10.0129 8.36727 10.202C8.35441 10.3911 8.27348 10.5691 8.13945 10.7032C8.00542 10.8372 7.82738 10.9181 7.63827 10.931C7.44917 10.9181 7.27112 10.8372 7.13709 10.7032C7.00307 10.5691 6.92213 10.3911 6.90927 10.202C6.90037 10.104 6.91311 10.0053 6.94659 9.91282C6.98008 9.82033 7.03349 9.73633 7.10305 9.66677C7.1726 9.59722 7.2566 9.54381 7.34909 9.51032C7.44159 9.47683 7.54031 9.46409 7.63827 9.473ZM16.7513 9.473C16.9404 9.48586 17.1184 9.56679 17.2525 9.70082C17.3865 9.83485 17.4674 10.0129 17.4803 10.202C17.4803 10.3953 17.4035 10.5808 17.2668 10.7175C17.13 10.8542 16.9446 10.931 16.7513 10.931C16.5579 10.931 16.3725 10.8542 16.2358 10.7175C16.0991 10.5808 16.0223 10.3953 16.0223 10.202C16.0209 10.1059 16.0389 10.0105 16.075 9.92144C16.1112 9.83238 16.1648 9.75148 16.2328 9.68352C16.3008 9.61555 16.3817 9.56191 16.4707 9.52575C16.5598 9.48959 16.6552 9.47165 16.7513 9.473ZM16.0223 8.379V7.012H8.36827V8.379C8.72859 8.52511 9.03541 8.77824 9.24732 9.10424C9.45922 9.43023 9.56601 9.81339 9.55327 10.202C9.55945 10.4551 9.51413 10.7069 9.42006 10.9419C9.326 11.177 9.18515 11.3905 9.00607 11.5695C8.82698 11.7485 8.6134 11.8892 8.37827 11.9832C8.14315 12.0771 7.89139 12.1223 7.63827 12.116C7.38524 12.1222 7.13359 12.0769 6.89858 11.9829C6.66358 11.8889 6.45011 11.7481 6.27114 11.5691C6.09216 11.3902 5.9514 11.1767 5.8574 10.9417C5.76339 10.7067 5.7181 10.455 5.72427 10.202C5.72418 9.81605 5.83609 9.43837 6.04644 9.11477C6.25678 8.79118 6.55652 8.53559 6.90927 8.379V7.012H4.08427C3.90227 7.012 3.81127 7.012 3.71927 7.103C3.64871 7.10418 3.57931 7.12114 3.51615 7.15264C3.45299 7.18413 3.39768 7.22935 3.35427 7.285L3.26327 7.376C3.26327 7.467 3.17227 7.558 3.08127 7.649C3.08127 7.831 2.99027 7.922 2.99027 8.105L1.99027 25.967C1.99027 26.149 1.99027 26.24 2.08127 26.332C2.17227 26.424 2.17227 26.605 2.35427 26.697C2.4583 26.8095 2.582 26.902 2.71927 26.97C2.82639 27.0424 2.95568 27.0747 3.08427 27.061H21.4003C21.5823 27.061 21.6733 27.061 21.7653 26.97C21.8573 26.879 22.0383 26.879 22.1303 26.697C22.2427 26.593 22.3353 26.4693 22.4033 26.332C22.4757 26.2249 22.508 26.0956 22.4943 25.967L21.4003 8.106C21.4145 7.94841 21.3829 7.79007 21.3093 7.65C21.2183 7.559 21.2183 7.377 21.0363 7.285C20.9322 7.17253 20.8085 7.08001 20.6713 7.012C20.5346 6.92927 20.3732 6.89706 20.2153 6.921H17.3903V8.286C17.7506 8.43211 18.0574 8.68524 18.2693 9.01124C18.4812 9.33723 18.588 9.72039 18.5753 10.109C18.5753 10.3603 18.5258 10.6092 18.4296 10.8415C18.3334 11.0737 18.1924 11.2847 18.0147 11.4624C17.8369 11.6401 17.6259 11.7811 17.3937 11.8773C17.1615 11.9735 16.9126 12.023 16.6613 12.023C16.4099 12.023 16.161 11.9735 15.9288 11.8773C15.6966 11.7811 15.4856 11.6401 15.3079 11.4624C15.1301 11.2847 14.9892 11.0737 14.893 10.8415C14.7968 10.6092 14.7473 10.3603 14.7473 10.109C14.8027 9.73816 14.9479 9.38649 15.1703 9.08462C15.3927 8.78274 15.6855 8.53982 16.0233 8.377L16.0223 8.379ZM17.4803 5.554V5.372C17.4792 3.97056 16.9221 2.62681 15.9312 1.63576C14.9404 0.644696 13.5967 0.0873227 12.1953 0.0859985L12.1043 0.0859985C10.7086 0.114641 9.37478 0.667646 8.36827 1.635C7.42656 2.65115 6.90518 3.98658 6.90927 5.372V5.463V5.554H4.08427C3.77237 5.56157 3.46414 5.62315 3.17327 5.736C2.87318 5.87462 2.59652 6.05917 2.35327 6.283L2.26227 6.374C2.07817 6.59538 1.92478 6.84059 1.80627 7.103C1.70213 7.39634 1.64084 7.70316 1.62427 8.014L0.530273 25.968C0.53785 26.2799 0.599428 26.5881 0.712273 26.879C0.828709 27.191 1.01595 27.4717 1.25927 27.699C1.48661 27.9423 1.7673 28.1296 2.07927 28.246C2.37261 28.3501 2.67944 28.4114 2.99027 28.428H21.3093C21.6212 28.4204 21.9294 28.3588 22.2203 28.246C22.4937 28.1491 22.7425 27.9935 22.9493 27.79L23.0403 27.699C23.2836 27.4717 23.4708 27.191 23.5873 26.879C23.6914 26.5857 23.7527 26.2788 23.7693 25.968L22.7693 8.106C22.7617 7.7941 22.7001 7.48587 22.5873 7.195C22.4708 6.88303 22.2836 6.60233 22.0403 6.375C21.8129 6.13168 21.5322 5.94443 21.2203 5.828C20.9269 5.72386 20.6201 5.66256 20.3093 5.646H17.4813L17.4803 5.554Z" fill="#231F20"/>
</svg>
